# xmcd
#
# Track frame offsets:
#	151
#	15286
#	31006
#	48696
#	74481
#	88458
#	107247
#	116608
#	129685
#	143430
#	156013
#	169728
#	186582
#	201819
#	216182
#	229282
#	243935
#	255360
#
# Disc length: 3653
#
# Revision: 1
# Processed by: cddbd v1.5.1PL0 Copyright (c) Steve Scherf et al.
# Submitted via: CDex 1.50
# Normalized: r0:DSETVAR1,TDELIM( - )
#
DISCID=000e4312
DTITLE=Various Artist - Collections of Jazz - CD 04
DYEAR=1900
DGENRE=Jazz
TTITLE0=Billie Holiday - Lover Come Back To Me
TTITLE1=Tony Bennett - I'm Just A Lucky So And So
TTITLE2=Joe Williams - What A Difference A Day Made
TTITLE3=Carmen McRae - Inside A Silent Tear
TTITLE4=Guy Kelly - The Blues Jumped A Rabbit
TTITLE5=Sarah Vaughan - Scat Blues
TTITLE6=Doris Day - Crying My Heart Out For You
TTITLE7=Cliff Edwards - Fascinating Rhythm
TTITLE8=Red McKenzie - Fan It
TTITLE9=Nat Gonella - Jubilee
TTITLE10=Cab Calloway - Hi De Ho Man
TTITLE11=Helen O'Connell - Just For A Thrill
TTITLE12=Bob Eberly - Fools Rush In
TTITLE13=Betty Dale - Boo Hoo
TTITLE14=Chick Henderson - I Double Dare You
TTITLE15=Red Dorris - Hit That Jive, Jack
TTITLE16=Helen Merrill - It's Wonderful
TTITLE17=Lambert, Hendricks and Ross - Little Darlin
EXTD=
EXTT0=
EXTT1=
EXTT2=
EXTT3=
EXTT4=
EXTT5=
EXTT6=
EXTT7=
EXTT8=
EXTT9=
EXTT10=
EXTT11=
EXTT12=
EXTT13=
EXTT14=
EXTT15=
EXTT16=
EXTT17=
PLAYORDER=
